<svg width="128" height="31" viewBox="0 0 128 31" fill="none" xmlns="http://www.w3.org/2000/svg">
<path d="M6.5025 31L9.265 19.5382L0 11.8289L12.24 10.8092L17 0L21.76 10.8092L34 11.8289L24.735 19.5382L27.4975 31L17 24.9224L6.5025 31Z" fill="url(#paint0_linear_28_1557)"/>
<path d="M53.5025 31L56.265 19.5382L47 11.8289L59.24 10.8092L64 0L68.76 10.8092L81 11.8289L71.735 19.5382L74.4975 31L64 24.9224L53.5025 31Z" fill="url(#paint1_linear_28_1557)"/>
<path d="M100.502 31L103.265 19.5382L94 11.8289L106.24 10.8092L111 0L115.76 10.8092L128 11.8289L118.735 19.5382L121.497 31L111 24.9224L100.502 31Z" fill="url(#paint2_linear_28_1557)"/>
<defs>
<linearGradient id="paint0_linear_28_1557" x1="4.06522" y1="15.8605" x2="28.8261" y2="15.8605" gradientUnits="userSpaceOnUse">
<stop offset="0.255208" stop-color="#D88E20"/>
<stop offset="0.6875" stop-color="#FFD15A"/>
<stop offset="1" stop-color="#EB9617"/>
</linearGradient>
<linearGradient id="paint1_linear_28_1557" x1="51.0652" y1="15.8605" x2="75.8261" y2="15.8605" gradientUnits="userSpaceOnUse">
<stop offset="0.255208" stop-color="#D88E20"/>
<stop offset="0.6875" stop-color="#FFD15A"/>
<stop offset="1" stop-color="#EB9617"/>
</linearGradient>
<linearGradient id="paint2_linear_28_1557" x1="98.0652" y1="15.8605" x2="122.826" y2="15.8605" gradientUnits="userSpaceOnUse">
<stop offset="0.255208" stop-color="#D88E20"/>
<stop offset="0.6875" stop-color="#FFD15A"/>
<stop offset="1" stop-color="#EB9617"/>
</linearGradient>
</defs>
</svg>
