<?xml version="1.0" encoding="UTF-8"?>
<svg id="Layer_1" data-name="Layer 1" xmlns="http://www.w3.org/2000/svg" xmlns:xlink="http://www.w3.org/1999/xlink" viewBox="0 0 100 100">
  <defs>
    <style>
      .cls-1 {
        fill: url(#linear-gradient);
      }
    </style>
    <linearGradient id="linear-gradient" x1="-10.08" y1="16.19" x2="128.32" y2="116.77" gradientUnits="userSpaceOnUse">
      <stop offset="0" stop-color="#a0752b"/>
      <stop offset=".06" stop-color="#a2782e"/>
      <stop offset=".12" stop-color="#aa8438"/>
      <stop offset=".18" stop-color="#b79749"/>
      <stop offset=".24" stop-color="#c9b161"/>
      <stop offset=".3" stop-color="#e1d47f"/>
      <stop offset=".35" stop-color="#fefda4"/>
      <stop offset=".35" stop-color="#ffffa6"/>
      <stop offset=".67" stop-color="#fdd551"/>
      <stop offset="1" stop-color="#a0752b"/>
    </linearGradient>
  </defs>
  <rect width="100" height="100"/>
  <path class="cls-1" d="M45.02,73c-1.82-.89-2.54-2.48-2.75-4.36-.11-.97,.31-1.81,.98-2.51,.37-.38,.77-.73,1.11-1.14,.51-.6,.49-.97,.03-1.6-.23-.31-.44-.62-.56-.99-.28-.82-.05-1.51,.69-1.97,.28-.18,.59-.3,.91-.4,.15-.05,.32-.07,.46-.17-.03-.16-.15-.27-.23-.39-.18-.28-.39-.54-.53-.84-.31-.7-.16-1.21,.48-1.61,.18-.11,.38-.2,.58-.28,.35-.15,.7-.3,1.02-.51,.82-.55,1.09-1.26,.84-2.23-.17-.69-.57-1.26-.92-1.86-.33-.57-.71-1.12-.92-1.76-.25-.77-.07-1.22,.62-1.62,.28-.16,.58-.25,.88-.33,1-.28,2.01-.54,3.01-.82,1.84-.51,3.6-1.23,5.17-2.34,.2-.14,.39-.3,.56-.48,.35-.38,.48-.81,.32-1.32-.11-.33-.24-.65-.41-.95-.31-.55-.61-1.1-.92-1.64-.02-.1,0-.16,.11-.1,.1,.11,.17,.24,.36,.26,.01-.34-.18-.63-.16-.95-.07-.09-.02-.19-.04-.29,0,0,0-.02-.02-.05,0-.02-.01-.03-.01-.03,0,0,0,0,0,0,0,0,0,.01,.02,.02,.03,.06,.08,.1,.14,.14,.57,.93,1.02,1.92,1.63,2.87,2.34-3.85,5.22-7.13,8.97-9.58-.1-.14-.2-.13-.3-.14-1.17-.1-2.34-.2-3.5-.3-1.55-.13-3.09-.28-4.64-.39-.3-.02-.43-.13-.51-.42-.18-.74-.4-1.47-.6-2.2-1.13-4.09-2.26-8.19-3.39-12.28-1.11-4.01-2.21-8.03-3.31-12.04-.04-.14-.05-.3-.19-.38-.15,.51-.38,.98-.58,1.47-1.5,3.71-2.99,7.42-4.49,11.13-1.76,4.37-3.52,8.74-5.28,13.11-.77,1.9-1.54,3.8-2.3,5.7-.1,.24-.23,.36-.51,.37-.81,.04-1.61,.13-2.42,.17-1.57,.08-3.13,.2-4.7,.3-1.58,.1-3.17,.19-4.75,.3-1.33,.09-2.67,.13-4.01,.24-.59,.05-1.19,.05-1.78,.1-1.43,.12-2.87,.19-4.3,.28-.64,.04-1.29,.07-1.93,.11-1.76,.11-3.53,.25-5.29,.36-1.34,.09-2.67,.14-4.01,.23-.43,.03-.86,.07-1.29,.08-.12,0-.24,0-.22,.18,.17,.04,.3,.14,.43,.23,1.16,.74,2.32,1.47,3.47,2.21,5.31,3.39,10.62,6.79,15.93,10.18,3.26,2.08,6.52,4.17,9.78,6.25,.4,.26,.4,.27,.29,.72-.85,3.31-1.7,6.63-2.55,9.94-1.48,5.74-2.97,11.48-4.45,17.23-.76,2.96-1.52,5.92-2.28,8.88,.01,.08,.02,.17,.11,.21,2.71-2.06,5.42-4.13,8.13-6.19,2.49-1.89,4.97-3.78,7.46-5.67,3.5-2.66,7.01-5.32,10.51-7.98,.14-.11,.3-.2,.39-.36-.16-.17-.37-.19-.55-.25-1.31-.42-2.57-.95-3.81-1.56Z"/>
</svg>